<svg width="136" height="64" viewBox="0 0 136 64" fill="none" xmlns="http://www.w3.org/2000/svg">
<path d="M90.1463 14.0489H87.8048C87.3737 14.0489 87.0243 13.6995 87.0243 13.2684V11.3172C87.0243 10.8862 86.6749 10.5367 86.2438 10.5367H84.6828C84.2518 10.5367 83.9024 10.8862 83.9024 11.3172V15.0473C83.9024 15.3833 84.1173 15.6815 84.436 15.7878L90.3931 17.7735C90.7118 17.8797 90.9268 18.1779 90.9268 18.5139V25.7562C90.9268 25.7562 90.9268 28.8782 85.4633 28.8782C79.9999 28.8782 79.9999 25.7562 79.9999 25.7562V22.244C79.9999 21.813 80.3494 21.4635 80.7804 21.4635H82.7316C83.1627 21.4635 83.5121 21.813 83.5121 22.244V24.1953C83.5121 24.6263 83.8615 24.9757 84.2926 24.9757H86.2438C86.6749 24.9757 87.0243 24.6263 87.0243 24.1953V20.8554C87.0243 20.5194 86.8093 20.2212 86.4906 20.1149L80.5336 18.1292C80.2149 18.023 79.9999 17.7248 79.9999 17.3888V9.75623C79.9999 9.75623 79.9999 6.63428 85.4633 6.63428C90.9268 6.63428 90.9268 9.75623 90.9268 9.75623V13.2684C90.9268 13.6995 90.5773 14.0489 90.1463 14.0489Z" fill="white"/>
<path d="M8.19504 13.0489C8.19504 13.6012 8.64276 14.0489 9.19504 14.0489H11.0975C11.6498 14.0489 12.0975 13.6012 12.0975 13.0489V9.75623C12.0975 9.75623 12.0975 6.63428 6.63407 6.63428C1.17065 6.63428 1.17065 9.75623 1.17065 9.75623V17.2306C1.17065 17.661 1.44608 18.0432 1.85443 18.1793L7.51127 20.0649C7.91961 20.201 8.19504 20.5831 8.19504 21.0136V23.9757C8.19504 24.528 7.74733 24.9757 7.19504 24.9757H5.68285C5.13057 24.9757 4.68285 24.528 4.68285 23.9757V22.4635C4.68285 21.9113 4.23513 21.4635 3.68285 21.4635H2.17066C1.61837 21.4635 1.17065 21.9113 1.17065 22.4635V25.7562C1.17065 25.7562 1.17065 28.8782 6.63407 28.8782C12.0975 28.8782 12.0975 25.7562 12.0975 25.7562V18.6721C12.0975 18.2417 11.8221 17.8595 11.4137 17.7234L5.75687 15.8378C5.34852 15.7017 5.07309 15.3196 5.07309 14.8891V11.5367C5.07309 10.9844 5.52081 10.5367 6.07309 10.5367H7.19504C7.74733 10.5367 8.19504 10.9844 8.19504 11.5367V13.0489Z" fill="white"/>
<path d="M14.8292 9.53672C14.8292 10.089 15.2769 10.5367 15.8292 10.5367H18.3414V27.8782C18.3414 28.4305 18.7891 28.8782 19.3414 28.8782H21.2438C21.7961 28.8782 22.2438 28.4305 22.2438 27.8782V10.5367H24.756C25.3083 10.5367 25.756 10.089 25.756 9.53672V7.63428C25.756 7.08199 25.3083 6.63428 24.756 6.63428H15.8292C15.2769 6.63428 14.8292 7.08199 14.8292 7.63428V9.53672Z" fill="white"/>
<path fill-rule="evenodd" clip-rule="evenodd" d="M29.878 6.63428C29.3257 6.63428 28.878 7.08199 28.878 7.63428V27.8782C28.878 28.4305 29.3257 28.8782 29.878 28.8782H31.7804C32.3327 28.8782 32.7804 28.4305 32.7804 27.8782V21.4635H34.3414L36.4622 28.1793C36.5935 28.5953 36.9795 28.8782 37.4157 28.8782H39.1512C39.8469 28.8782 40.33 28.1853 40.0895 27.5325L37.8536 21.4635L39.0243 20.2928C39.5601 19.757 39.912 19.2212 40.08 18.9379C40.1592 18.8043 40.195 18.651 40.195 18.4958V9.75623C40.195 9.75623 40.195 8.97574 39.0243 7.80501C37.8536 6.63428 37.0731 6.63428 37.0731 6.63428H29.878ZM35.764 10.7047C35.5998 10.5952 35.4068 10.5367 35.2093 10.5367H32.3902V17.5611H35.4881C35.7534 17.5611 36.0077 17.4557 36.1953 17.2682L36.39 17.0735C36.5775 16.886 36.6828 16.6316 36.6828 16.3664V11.8524C36.6828 11.518 36.5157 11.2058 36.2375 11.0203L35.764 10.7047Z" fill="white"/>
<path d="M43.317 7.63428C43.317 7.08199 43.7647 6.63428 44.317 6.63428H46.2194C46.7717 6.63428 47.2194 7.08199 47.2194 7.63428V27.8782C47.2194 28.4305 46.7717 28.8782 46.2194 28.8782H44.317C43.7647 28.8782 43.317 28.4305 43.317 27.8782V7.63428Z" fill="white"/>
<path d="M50.7316 7.63428C50.7316 7.08199 51.1793 6.63428 51.7316 6.63428H53.6341C54.1864 6.63428 54.6341 7.08199 54.6341 7.63428V15.6099L58.6548 7.20282C58.821 6.85541 59.1719 6.63428 59.557 6.63428H61.2112C61.9545 6.63428 62.438 7.41659 62.1056 8.08149L57.9613 16.37C57.831 16.6307 57.8209 16.9352 57.9335 17.204L62.2477 27.4915C62.524 28.1504 62.04 28.8782 61.3255 28.8782H59.6272C59.2067 28.8782 58.8311 28.6151 58.6874 28.2199L55.8048 20.2928L54.8341 21.5871C54.7042 21.7602 54.6341 21.9708 54.6341 22.1871V27.8782C54.6341 28.4305 54.1864 28.8782 53.6341 28.8782H51.7316C51.1793 28.8782 50.7316 28.4305 50.7316 27.8782V7.63428Z" fill="white"/>
<path d="M65.5609 7.63428C65.5609 7.08199 66.0086 6.63428 66.5609 6.63428H75.4877C76.04 6.63428 76.4877 7.08199 76.4877 7.63428V9.53672C76.4877 10.089 76.04 10.5367 75.4877 10.5367H70.4633C69.911 10.5367 69.4633 10.9844 69.4633 11.5367V16.0001H74.9268V19.5123H69.4633V23.9757C69.4633 24.528 69.911 24.9757 70.4633 24.9757H75.4877C76.04 24.9757 76.4877 25.4235 76.4877 25.9757V27.8782C76.4877 28.4305 76.04 28.8782 75.4877 28.8782H66.5609C66.0086 28.8782 65.5609 28.4305 65.5609 27.8782V7.63428Z" fill="white"/>
<path d="M94.0487 7.63428C94.0487 7.08199 94.4964 6.63428 95.0487 6.63428H96.9511C97.5034 6.63428 97.9511 7.08199 97.9511 7.63428V16.0001H101.073V7.63428C101.073 7.08199 101.521 6.63428 102.073 6.63428H103.976C104.528 6.63428 104.976 7.08199 104.976 7.63428V27.8782C104.976 28.4305 104.528 28.8782 103.976 28.8782H102.073C101.521 28.8782 101.073 28.4305 101.073 27.8782V19.5123H97.9511V27.8782C97.9511 28.4305 97.5034 28.8782 96.9511 28.8782H95.0487C94.4964 28.8782 94.0487 28.4305 94.0487 27.8782V7.63428Z" fill="white"/>
<path fill-rule="evenodd" clip-rule="evenodd" d="M123.927 6.63428C123.374 6.63428 122.927 7.08199 122.927 7.63428V27.8782C122.927 28.4305 123.374 28.8782 123.927 28.8782H125.829C126.381 28.8782 126.829 28.4305 126.829 27.8782V21.4635H131.122C131.122 21.4635 132.293 21.4635 133.073 20.2928C133.854 19.1221 133.854 18.3416 133.854 18.3416V8.97574C133.854 8.97574 133.463 8.19525 132.683 7.41477C131.902 6.63428 131.122 6.63428 131.122 6.63428H123.927ZM126.829 10.5367V17.5611H128.951C129.503 17.5611 129.951 17.1134 129.951 16.5611V11.5367C129.951 10.9844 129.503 10.5367 128.951 10.5367H126.829Z" fill="white"/>
<path fill-rule="evenodd" clip-rule="evenodd" d="M119.415 9.75623V25.7562C119.415 25.7562 119.415 28.8782 113.951 28.8782C108.488 28.8782 108.488 25.7562 108.488 25.7562V9.75623C108.488 9.75623 108.488 6.63428 113.951 6.63428C119.415 6.63428 119.415 9.75623 119.415 9.75623ZM115.512 11.5367C115.512 10.9844 115.064 10.5367 114.512 10.5367H113.39C112.838 10.5367 112.39 10.9844 112.39 11.5367V23.9757C112.39 24.528 112.838 24.9757 113.39 24.9757H114.512C115.064 24.9757 115.512 24.528 115.512 23.9757V11.5367Z" fill="white"/>
<path fill-rule="evenodd" clip-rule="evenodd" d="M0.780518 56.366C0.780518 56.9183 1.22823 57.366 1.78052 57.366H3.68296C4.23524 57.366 4.68296 56.9183 4.68296 56.366V49.1708H8.5854V56.366C8.5854 56.9183 9.03311 57.366 9.5854 57.366H11.4878C12.0401 57.366 12.4878 56.9183 12.4878 56.366V38.244C12.4878 38.244 12.4878 35.1221 6.63418 35.1221C0.780518 35.1221 0.780518 38.244 0.780518 38.244V56.366ZM8.5854 44.8782H4.68296V40.0245C4.68296 39.4722 5.13067 39.0245 5.68296 39.0245H7.5854C8.13768 39.0245 8.5854 39.4722 8.5854 40.0245V44.8782Z" fill="white"/>
<path d="M15.2195 38.244V54.244C15.2195 54.244 15.6098 57.366 21.0732 57.366C26.5366 57.366 26.5366 54.244 26.5366 54.244V50.9513C26.5366 50.3991 26.0889 49.9513 25.5366 49.9513H23.6342C23.0819 49.9513 22.6342 50.3991 22.6342 50.9513V53.4635H20.122C19.5697 53.4635 19.122 53.0158 19.122 52.4635V40.0245C19.122 39.4722 19.5697 39.0245 20.122 39.0245H22.6342V41.9269C22.6342 42.4792 23.0819 42.9269 23.6342 42.9269H25.5366C26.0889 42.9269 26.5366 42.4792 26.5366 41.9269V38.244C26.5366 38.244 26.5366 35.1221 21.0732 35.1221C15.6098 35.1221 15.2195 38.244 15.2195 38.244Z" fill="white"/>
<path d="M28.8781 38.0245C28.8781 38.5768 29.3258 39.0245 29.8781 39.0245H32.3903V56.366C32.3903 56.9183 32.838 57.366 33.3903 57.366H35.2927C35.845 57.366 36.2927 56.9183 36.2927 56.366V39.0245H38.8049C39.3572 39.0245 39.8049 38.5768 39.8049 38.0245V36.1221C39.8049 35.5698 39.3572 35.1221 38.8049 35.1221H29.8781C29.3258 35.1221 28.8781 35.5698 28.8781 36.1221V38.0245Z" fill="white"/>
<path d="M43.3171 36.1221C43.3171 35.5698 43.7648 35.1221 44.3171 35.1221H46.2195C46.7718 35.1221 47.2195 35.5698 47.2195 36.1221V56.366C47.2195 56.9183 46.7718 57.366 46.2195 57.366H44.3171C43.7648 57.366 43.3171 56.9183 43.3171 56.366V36.1221Z" fill="white"/>
<path fill-rule="evenodd" clip-rule="evenodd" d="M61.6586 38.244V54.244C61.6586 54.244 61.6586 57.366 56.1951 57.366C50.7317 57.366 50.7317 54.244 50.7317 54.244V38.244C50.7317 38.244 50.7317 35.1221 56.1951 35.1221C61.6586 35.1221 61.6586 38.244 61.6586 38.244ZM57.7561 40.0245C57.7561 39.4722 57.3084 39.0245 56.7561 39.0245H55.6342C55.0819 39.0245 54.6342 39.4722 54.6342 40.0245V52.4635C54.6342 53.0158 55.0819 53.4635 55.6342 53.4635H56.7561C57.3084 53.4635 57.7561 53.0158 57.7561 52.4635V40.0245Z" fill="white"/>
<path d="M65.1708 56.366C65.1708 56.9183 65.6185 57.366 66.1708 57.366H68.0732C68.6255 57.366 69.0732 56.9183 69.0732 56.366V45.6587L73.1254 56.7102C73.2699 57.1041 73.6448 57.366 74.0643 57.366H76.2683C76.8206 57.366 77.2683 56.9183 77.2683 56.366V36.1221C77.2683 35.5698 76.8206 35.1221 76.2683 35.1221H74.3659C73.8136 35.1221 73.3659 35.5698 73.3659 36.1221V47.2196L69.3136 36.1681C69.1692 35.7742 68.7943 35.5123 68.3748 35.5123H66.1708C65.6185 35.5123 65.1708 35.96 65.1708 36.5123V56.366Z" fill="white"/>
<path fill-rule="evenodd" clip-rule="evenodd" d="M91.7429 35.1221H79.6099L87.0919 46.0418L79.6099 57.366H91.7429L99.4272 46.0418L91.7429 35.1221ZM109.134 35.1221H97.0006L104.483 46.0418L97.0006 57.366H109.134L116.818 46.0418L109.134 35.1221ZM114.796 35.1221H126.929L134.613 46.0418L126.929 57.366H114.796L122.278 46.0418L114.796 35.1221Z" fill="white"/>
</svg>
