<svg width="119" height="56" viewBox="0 0 119 56" fill="none" xmlns="http://www.w3.org/2000/svg">
<path d="M78.8781 12.2927H76.8293C76.4521 12.2927 76.1464 11.9869 76.1464 11.6097V9.90243C76.1464 9.52526 75.8406 9.2195 75.4634 9.2195H74.0976C73.7204 9.2195 73.4146 9.52526 73.4146 9.90243V13.1663C73.4146 13.4603 73.6027 13.7212 73.8816 13.8142L79.094 15.5517C79.3729 15.6446 79.561 15.9056 79.561 16.1995V22.5366C79.561 22.5366 79.561 25.2683 74.7805 25.2683C70 25.2683 70 22.5366 70 22.5366V19.4634C70 19.0862 70.3058 18.7805 70.6829 18.7805H72.3903C72.7674 18.7805 73.0732 19.0862 73.0732 19.4634V21.1707C73.0732 21.5479 73.3789 21.8537 73.7561 21.8537H75.4634C75.8406 21.8537 76.1464 21.5479 76.1464 21.1707V18.2483C76.1464 17.9544 75.9583 17.6934 75.6794 17.6004L70.467 15.863C70.1881 15.77 70 15.509 70 15.2151V8.53658C70 8.53658 70 5.80487 74.7805 5.80487C79.561 5.80487 79.561 8.53658 79.561 8.53658V11.6097C79.561 11.9869 79.2552 12.2927 78.8781 12.2927Z" fill="white"/>
<path d="M7.17075 11.2927C7.17075 11.845 7.61847 12.2927 8.17075 12.2927H9.58539C10.1377 12.2927 10.5854 11.845 10.5854 11.2927V8.53658C10.5854 8.53658 10.5854 5.80487 5.8049 5.80487C1.02441 5.80487 1.02441 8.53658 1.02441 8.53658V14.9866C1.02441 15.417 1.29984 15.7991 1.70819 15.9352L6.48698 17.5282C6.89532 17.6643 7.17075 18.0464 7.17075 18.4768V20.8537C7.17075 21.4059 6.72304 21.8537 6.17075 21.8537H5.09758C4.5453 21.8537 4.09758 21.4059 4.09758 20.8537V19.7805C4.09758 19.2282 3.64987 18.7805 3.09758 18.7805H2.02441C1.47213 18.7805 1.02441 19.2282 1.02441 19.7805V22.5366C1.02441 22.5366 1.02441 25.2683 5.8049 25.2683C10.5854 25.2683 10.5854 22.5366 10.5854 22.5366V16.4281C10.5854 15.9976 10.31 15.6155 9.90162 15.4794L5.12282 13.8865C4.71448 13.7503 4.43905 13.3682 4.43905 12.9378V10.2195C4.43905 9.66722 4.88676 9.2195 5.43905 9.2195H6.17075C6.72304 9.2195 7.17075 9.66722 7.17075 10.2195V11.2927Z" fill="white"/>
<path d="M12.9756 8.2195C12.9756 8.77179 13.4233 9.2195 13.9756 9.2195H16.0488V24.2683C16.0488 24.8206 16.4965 25.2683 17.0488 25.2683H18.4634C19.0157 25.2683 19.4634 24.8206 19.4634 24.2683V9.2195H21.5366C22.0889 9.2195 22.5366 8.77179 22.5366 8.2195V6.80487C22.5366 6.25259 22.0889 5.80487 21.5366 5.80487H13.9756C13.4233 5.80487 12.9756 6.25259 12.9756 6.80487V8.2195Z" fill="white"/>
<path fill-rule="evenodd" clip-rule="evenodd" d="M26.2683 5.80487C25.716 5.80487 25.2683 6.25259 25.2683 6.80487V24.2683C25.2683 24.8206 25.716 25.2683 26.2683 25.2683H27.6829C28.2352 25.2683 28.6829 24.8206 28.6829 24.2683V18.7805H30.0488L31.8769 24.5694C32.0083 24.9854 32.3942 25.2683 32.8305 25.2683H34.0781C34.7738 25.2683 35.257 24.5754 35.0164 23.9226L33.122 18.7805L34.1464 17.7561C34.5998 17.3026 34.9027 16.8492 35.0551 16.5956C35.1351 16.4626 35.1708 16.3094 35.1708 16.1542V8.53658C35.1708 8.53658 35.1708 7.85365 34.1464 6.82926C33.122 5.80487 32.439 5.80487 32.439 5.80487H26.2683ZM31.3251 9.38745C31.1608 9.27794 30.9678 9.2195 30.7704 9.2195H28.3415V15.3658H31.0004C31.2657 15.3658 31.52 15.2605 31.7075 15.073L31.8047 14.9758C31.9922 14.7883 32.0976 14.5339 32.0976 14.2687V10.4376C32.0976 10.1033 31.9305 9.79103 31.6523 9.60556L31.3251 9.38745Z" fill="white"/>
<path d="M37.9025 6.80487C37.9025 6.25258 38.3502 5.80487 38.9025 5.80487H40.3171C40.8694 5.80487 41.3171 6.25259 41.3171 6.80487V24.2683C41.3171 24.8206 40.8694 25.2683 40.3171 25.2683H38.9025C38.3502 25.2683 37.9025 24.8206 37.9025 24.2683V6.80487Z" fill="white"/>
<path d="M44.3903 6.80487C44.3903 6.25258 44.838 5.80487 45.3903 5.80487H46.8049C47.3572 5.80487 47.8049 6.25259 47.8049 6.80487V13.6585L51.2891 6.37341C51.4552 6.026 51.8061 5.80487 52.1912 5.80487H53.3576C54.101 5.80487 54.5845 6.58718 54.252 7.25208L50.7419 14.2723C50.6116 14.533 50.6014 14.8375 50.7141 15.1063L54.3941 23.8816C54.6704 24.5405 54.1865 25.2683 53.4719 25.2683H52.2614C51.8409 25.2683 51.4653 25.0052 51.3216 24.61L48.8293 17.7561L48.0049 18.8553C47.8751 19.0284 47.8049 19.2389 47.8049 19.4553V24.2683C47.8049 24.8206 47.3572 25.2683 46.8049 25.2683H45.3903C44.838 25.2683 44.3903 24.8206 44.3903 24.2683V6.80487Z" fill="white"/>
<path d="M57.3659 6.80487C57.3659 6.25258 57.8136 5.80487 58.3659 5.80487H65.9268C66.4791 5.80487 66.9268 6.25259 66.9268 6.80487V8.2195C66.9268 8.77179 66.4791 9.2195 65.9268 9.2195H61.7805C61.2282 9.2195 60.7805 9.66722 60.7805 10.2195V14H65.561V17.0732H60.7805V20.8537C60.7805 21.4059 61.2282 21.8537 61.7805 21.8537H65.9268C66.4791 21.8537 66.9268 22.3014 66.9268 22.8537V24.2683C66.9268 24.8206 66.4791 25.2683 65.9268 25.2683H58.3659C57.8136 25.2683 57.3659 24.8206 57.3659 24.2683V6.80487Z" fill="white"/>
<path d="M82.2927 6.80487C82.2927 6.25258 82.7404 5.80487 83.2927 5.80487H84.7073C85.2596 5.80487 85.7073 6.25259 85.7073 6.80487V14H88.439V6.80487C88.439 6.25258 88.8868 5.80487 89.439 5.80487H90.8537C91.406 5.80487 91.8537 6.25259 91.8537 6.80487V24.2683C91.8537 24.8206 91.406 25.2683 90.8537 25.2683H89.439C88.8868 25.2683 88.439 24.8206 88.439 24.2683V17.0732H85.7073V24.2683C85.7073 24.8206 85.2596 25.2683 84.7073 25.2683H83.2927C82.7404 25.2683 82.2927 24.8206 82.2927 24.2683V6.80487Z" fill="white"/>
<path fill-rule="evenodd" clip-rule="evenodd" d="M108.561 5.80487C108.009 5.80487 107.561 6.25259 107.561 6.80487V24.2683C107.561 24.8206 108.009 25.2683 108.561 25.2683H109.976C110.528 25.2683 110.976 24.8206 110.976 24.2683V18.7805H114.732C114.732 18.7805 115.756 18.7805 116.439 17.7561C117.122 16.7317 117.122 16.0488 117.122 16.0488V7.85365C117.122 7.85365 116.781 7.17072 116.098 6.4878C115.415 5.80487 114.732 5.80487 114.732 5.80487H108.561ZM110.976 9.2195V15.3658H112.707C113.26 15.3658 113.707 14.9181 113.707 14.3658V10.2195C113.707 9.66722 113.26 9.2195 112.707 9.2195H110.976Z" fill="white"/>
<path fill-rule="evenodd" clip-rule="evenodd" d="M104.488 8.53658V22.5366C104.488 22.5366 104.488 25.2683 99.7073 25.2683C94.9268 25.2683 94.9268 22.5366 94.9268 22.5366V8.53658C94.9268 8.53658 94.9268 5.80487 99.7073 5.80487C104.488 5.80487 104.488 8.53658 104.488 8.53658ZM101.073 10.2195C101.073 9.66722 100.625 9.2195 100.073 9.2195H99.3415C98.7892 9.2195 98.3415 9.66722 98.3415 10.2195V20.8537C98.3415 21.4059 98.7892 21.8537 99.3415 21.8537H100.073C100.625 21.8537 101.073 21.4059 101.073 20.8537V10.2195Z" fill="white"/>
<path fill-rule="evenodd" clip-rule="evenodd" d="M0.682861 49.1951C0.682861 49.7474 1.13058 50.1951 1.68286 50.1951H3.0975C3.64978 50.1951 4.09749 49.7474 4.09749 49.1951V43.0244H7.51213V49.1951C7.51213 49.7474 7.95984 50.1951 8.51213 50.1951H9.92676C10.479 50.1951 10.9268 49.7474 10.9268 49.1951V33.4634C10.9268 33.4634 10.9268 30.7317 5.80481 30.7317C0.682861 30.7317 0.682861 33.4634 0.682861 33.4634V49.1951ZM7.51213 39.2683H4.09749V35.1463C4.09749 34.594 4.54521 34.1463 5.09749 34.1463H6.51213C7.06441 34.1463 7.51213 34.594 7.51213 35.1463V39.2683Z" fill="#FA4616"/>
<path d="M13.317 33.4634V47.4634C13.317 47.4634 13.6585 50.1951 18.439 50.1951C23.2194 50.1951 23.2194 47.4634 23.2194 47.4634V44.7073C23.2194 44.155 22.7717 43.7073 22.2194 43.7073H20.8048C20.2525 43.7073 19.8048 44.155 19.8048 44.7073V46.7805H17.7316C17.1794 46.7805 16.7316 46.3328 16.7316 45.7805V35.1463C16.7316 34.594 17.1794 34.1463 17.7316 34.1463H19.8048V36.561C19.8048 37.1132 20.2525 37.561 20.8048 37.561H22.2194C22.7717 37.561 23.2194 37.1132 23.2194 36.561V33.4634C23.2194 33.4634 23.2194 30.7317 18.439 30.7317C13.6585 30.7317 13.317 33.4634 13.317 33.4634Z" fill="#FA4616"/>
<path d="M25.2682 33.1463C25.2682 33.6986 25.7159 34.1463 26.2682 34.1463H28.3414V49.1951C28.3414 49.7474 28.7891 50.1951 29.3414 50.1951H30.756C31.3083 50.1951 31.756 49.7474 31.756 49.1951V34.1463H33.8292C34.3815 34.1463 34.8292 33.6986 34.8292 33.1463V31.7317C34.8292 31.1794 34.3815 30.7317 33.8292 30.7317H26.2682C25.7159 30.7317 25.2682 31.1794 25.2682 31.7317V33.1463Z" fill="#FA4616"/>
<path d="M37.9024 31.7317C37.9024 31.1794 38.3501 30.7317 38.9024 30.7317H40.317C40.8693 30.7317 41.317 31.1794 41.317 31.7317V49.1951C41.317 49.7474 40.8693 50.1951 40.317 50.1951H38.9024C38.3501 50.1951 37.9024 49.7474 37.9024 49.1951V31.7317Z" fill="#FA4616"/>
<path fill-rule="evenodd" clip-rule="evenodd" d="M53.9511 33.4634V47.4634C53.9511 47.4634 53.9511 50.1951 49.1707 50.1951C44.3902 50.1951 44.3902 47.4634 44.3902 47.4634V33.4634C44.3902 33.4634 44.3902 30.7317 49.1707 30.7317C53.9511 30.7317 53.9511 33.4634 53.9511 33.4634ZM50.5365 35.1463C50.5365 34.594 50.0888 34.1463 49.5365 34.1463H48.8048C48.2525 34.1463 47.8048 34.594 47.8048 35.1463V45.7805C47.8048 46.3328 48.2525 46.7805 48.8048 46.7805H49.5365C50.0888 46.7805 50.5365 46.3328 50.5365 45.7805V35.1463Z" fill="#FA4616"/>
<path d="M57.0243 49.1951C57.0243 49.7474 57.472 50.1951 58.0243 50.1951H59.4389C59.9912 50.1951 60.4389 49.7474 60.4389 49.1951V39.9512L63.9546 49.5394C64.099 49.9332 64.474 50.1951 64.8935 50.1951H66.6097C67.162 50.1951 67.6097 49.7474 67.6097 49.1951V31.7317C67.6097 31.1794 67.162 30.7317 66.6097 30.7317H65.195C64.6428 30.7317 64.195 31.1794 64.195 31.7317V41.3171L60.6794 31.7289C60.535 31.335 60.16 31.0732 59.7405 31.0732H58.0243C57.472 31.0732 57.0243 31.5209 57.0243 32.0732V49.1951Z" fill="#FA4616"/>
<path fill-rule="evenodd" clip-rule="evenodd" d="M80.2749 30.7317H69.6584L76.2052 40.2865L69.6584 50.1951H80.2749L86.9986 40.2865L80.2749 30.7317ZM95.4917 30.7317H84.8753L91.4221 40.2865L84.8753 50.1951H95.4917L102.215 40.2865L95.4917 30.7317ZM100.446 30.7317H111.062L117.786 40.2865L111.062 50.1951H100.446L106.993 40.2865L100.446 30.7317Z" fill="#FA4616"/>
</svg>
