<svg width="133" height="40" viewBox="0 0 133 40" fill="none" xmlns="http://www.w3.org/2000/svg">
<g clip-path="url(#clip0_200_7096)">
<path d="M81.9879 31.2882C74.3238 36.9691 63.215 40.0001 53.6506 40.0001C40.2398 40.0001 28.1666 35.012 19.0327 26.7158C18.3151 26.0634 18.9581 25.1743 19.8192 25.6824C29.6764 31.4499 41.8645 34.9196 54.4544 34.9196C62.9452 34.9196 72.2857 33.153 80.8742 29.487C82.1716 28.9327 83.2567 30.3414 81.9879 31.2882Z" fill="white"/>
<path d="M85.0672 27.4727C84.1176 26.1539 78.7662 26.8496 76.3643 27.1581C75.6325 27.2549 75.5208 26.5653 76.1799 26.0692C80.442 22.8206 87.4356 23.7582 88.2511 24.8472C89.0667 25.9422 88.0389 33.5345 84.0338 37.1582C83.4193 37.7148 82.8328 37.4183 83.1065 36.6803C84.0058 34.2483 86.0224 28.7976 85.0672 27.4727Z" fill="white"/>
<path d="M76.5108 4.64262V1.61634C76.5108 1.15834 76.8564 0.851074 77.2712 0.851074H90.7339C91.166 0.851074 91.5116 1.16414 91.5116 1.61634V4.20781C91.5058 4.64262 91.1429 5.21077 90.4977 6.10938L83.5215 16.1332C86.1138 16.0694 88.8502 16.4579 91.2005 17.7913C91.7305 18.0927 91.8745 18.5334 91.9148 18.9682V22.1974C91.9148 22.638 91.4309 23.1539 90.924 22.8873C86.7821 20.7016 81.2806 20.4639 76.7009 22.9104C76.2343 23.1655 75.7446 22.6554 75.7446 22.2147V19.1479C75.7446 18.6551 75.7504 17.8145 76.24 17.0666L84.3223 5.40209H77.2885C76.8564 5.40209 76.5108 5.09482 76.5108 4.64262Z" fill="white"/>
<path d="M27.0423 22.9787H22.8725C22.4737 22.9498 22.157 22.6552 22.1277 22.2798V1.20151C22.1277 0.779824 22.4854 0.444787 22.9311 0.444787H26.8194C27.2241 0.462106 27.5466 0.768268 27.576 1.14951V3.90488H27.6522C28.6668 1.24194 30.5728 0 33.1415 0C35.7513 0 37.3817 1.24194 38.5546 3.90488C39.5633 1.24194 41.8564 0 44.3137 0C46.0614 0 47.9732 0.710503 49.1403 2.3048C50.4598 4.07817 50.1901 6.65447 50.1901 8.91307L50.1842 22.2162C50.1842 22.6379 49.8265 22.9787 49.3808 22.9787H45.2168C44.8005 22.9498 44.4662 22.6206 44.4662 22.2162V11.0446C44.4662 10.155 44.5483 7.93685 44.3489 7.09348C44.0381 5.67826 43.1056 5.27968 41.8974 5.27968C40.8887 5.27968 39.8331 5.94397 39.405 7.00684C38.9768 8.06971 39.0179 9.84885 39.0179 11.0446V22.2162C39.0179 22.6379 38.6602 22.9787 38.2144 22.9787H34.0505C33.6283 22.9498 33.2999 22.6206 33.2999 22.2162L33.294 11.0446C33.294 8.69356 33.6869 5.23347 30.7253 5.23347C27.7284 5.23347 27.8457 8.60691 27.8457 11.0446V22.2162C27.8457 22.6379 27.488 22.9787 27.0423 22.9787Z" fill="white"/>
<path d="M102.903 0C109.026 0 112.34 5.32555 112.34 12.0971C112.34 18.6394 108.678 23.8298 102.903 23.8298C96.8904 23.8298 93.6169 18.5042 93.6169 11.8679C93.6169 5.19036 96.931 0 102.903 0ZM102.938 4.37918C99.8968 4.37918 99.7052 8.57614 99.7052 11.1919C99.7052 13.8135 99.6646 19.4095 102.903 19.4095C106.101 19.4095 106.252 14.8951 106.252 12.1441C106.252 10.3337 106.177 8.17055 105.637 6.45414C105.173 4.96111 104.25 4.37918 102.938 4.37918Z" fill="white"/>
<path d="M120.378 22.9787H116.459C116.066 22.9498 115.75 22.6206 115.75 22.2162L115.745 1.13218C115.778 0.745162 116.104 0.444787 116.503 0.444787H120.151C120.494 0.462106 120.777 0.704728 120.854 1.03399V4.25724H120.926C122.028 1.3748 123.572 0 126.29 0C128.056 0 129.778 0.664293 130.885 2.48387C131.915 4.1706 131.915 7.00684 131.915 9.04592V22.3144C131.871 22.6841 131.544 22.9787 131.156 22.9787H127.209C126.85 22.9498 126.551 22.6726 126.512 22.3144V10.8655C126.512 8.5607 126.767 5.18725 124.048 5.18725C123.091 5.18725 122.21 5.85732 121.773 6.87398C121.22 8.16213 121.148 9.4445 121.148 10.8655V22.2162C121.142 22.6379 120.799 22.9787 120.378 22.9787Z" fill="white"/>
<path d="M65.6816 13.3137V12.4105C62.7216 12.4105 59.5946 13.0557 59.5946 16.6099C59.5946 18.4105 60.5102 19.6304 62.0824 19.6304C63.2341 19.6304 64.2649 18.909 64.9157 17.736C65.7219 16.2932 65.6816 14.9383 65.6816 13.3137ZM69.8107 23.4779C69.54 23.7242 69.1484 23.7418 68.8432 23.5776C67.4841 22.428 67.2422 21.8943 66.4936 20.7975C64.2477 23.1318 62.6582 23.8298 59.7443 23.8298C56.3005 23.8298 53.6169 21.6656 53.6169 17.3313C53.6169 13.9471 55.4194 11.6422 57.9821 10.5161C60.205 9.51901 63.309 9.34306 65.6816 9.0674V8.52782C65.6816 7.53662 65.7565 6.3636 65.1864 5.50731C64.6853 4.73898 63.7294 4.42226 62.8886 4.42226C61.328 4.42226 59.9343 5.23751 59.5946 6.92665C59.5255 7.30202 59.2548 7.67152 58.8862 7.68911L54.9127 7.25509C54.5787 7.17885 54.2101 6.90319 54.3022 6.3812C55.2179 1.478 59.5658 0 63.4587 0C65.4513 0 68.0542 0.539587 69.6264 2.07623C71.6189 3.97065 71.4289 6.4985 71.4289 9.24922V15.7477C71.4289 17.7008 72.2236 18.5571 72.9722 19.6128C73.2372 19.9882 73.2947 20.4398 72.9607 20.7213C72.1257 21.431 70.6399 22.7506 69.8222 23.4896L69.8107 23.4779Z" fill="white"/>
<path d="M12.0647 13.3137V12.4105C9.10465 12.4105 5.97763 13.0557 5.97763 16.6099C5.97763 18.4105 6.89327 19.6304 8.46542 19.6304C9.61718 19.6304 10.648 18.909 11.2988 17.736C12.105 16.2932 12.0647 14.9383 12.0647 13.3137ZM16.1937 23.4779C15.9231 23.7242 15.5315 23.7418 15.2262 23.5776C13.8672 22.428 13.6253 21.8943 12.8767 20.7975C10.6307 23.1318 9.04131 23.8298 6.12735 23.8298C2.68359 23.8298 0 21.6656 0 17.3313C0 13.9471 1.8025 11.6422 4.36516 10.5161C6.58806 9.51901 9.69205 9.34306 12.0647 9.0674V8.52782C12.0647 7.53662 12.1395 6.3636 11.5694 5.50731C11.0684 4.73898 10.1124 4.42226 9.27165 4.42226C7.71102 4.42226 6.31739 5.23751 5.97763 6.92665C5.90852 7.30202 5.63786 7.67152 5.2693 7.68911L1.29573 7.25509C0.961718 7.17885 0.593155 6.90319 0.685295 6.3812C1.60094 1.478 5.94883 0 9.84178 0C11.8343 0 14.4373 0.539587 16.0094 2.07623C18.002 3.97065 17.8119 6.4985 17.8119 9.24922V15.7477C17.8119 17.7008 18.6067 18.5571 19.3553 19.6128C19.6202 19.9882 19.6778 20.4398 19.3438 20.7213C18.5088 21.431 17.023 22.7506 16.2052 23.4896L16.1937 23.4779Z" fill="white"/>
</g>
<defs>
<clipPath id="clip0_200_7096">
<rect width="132.527" height="40" fill="white"/>
</clipPath>
</defs>
</svg>
