<svg width="140" height="40" viewBox="0 0 140 40" fill="none" xmlns="http://www.w3.org/2000/svg">
<g clip-path="url(#clip0_200_7133)">
<path d="M11.25 8.75H19.7C22.1875 8.75 24.125 9.2475 25.475 10.245C26.84 11.2425 27.525 12.6725 27.525 14.545C27.525 15.615 27.2803 16.5425 26.79 17.32C26.3 18.1075 25.5775 18.73 24.6175 19.1925C25.9425 19.6325 26.9575 20.33 27.6675 21.285C28.3725 22.24 28.7225 23.4 28.7225 24.76C28.7225 26.1025 28.38 27.2575 27.6975 28.21C27.015 29.175 26.04 29.92 24.7725 30.445C23.5075 30.97 21.9975 31.2325 20.2225 31.2325H11.2475L11.25 8.75ZM0 40H40V0H0V40ZM19.275 12.5C21.7025 12.5 22.925 13.3925 22.925 15.175C22.925 16.0975 22.615 16.8175 21.9925 17.33C21.37 17.845 20.4675 18.1 19.2925 18.1H15.8425V12.5H19.275ZM19.855 21.625H15.805V27.7H19.78C21.145 27.7 22.1975 27.4425 22.93 26.93C23.665 26.415 24.0325 25.6775 24.0325 24.7125C24.0325 22.6575 22.635 21.6375 19.8325 21.6375L19.855 21.625Z" fill="white"/>
<path d="M61.25 8.75H69.7C72.1875 8.75 74.125 9.2475 75.475 10.245C76.84 11.2425 77.525 12.6725 77.525 14.545C77.525 15.615 77.2803 16.5425 76.79 17.32C76.3 18.1075 75.575 18.73 74.6175 19.1925C75.9425 19.6325 76.9575 20.33 77.6675 21.285C78.3725 22.24 78.7225 23.4 78.7225 24.76C78.7225 26.1025 78.38 27.2575 77.6975 28.21C77.015 29.175 76.04 29.92 74.7725 30.445C73.5075 30.97 71.9975 31.2325 70.2225 31.2325H61.2475L61.25 8.75ZM50 40H90V0H50V40ZM69.275 12.5C71.7025 12.5 72.925 13.3925 72.925 15.175C72.925 16.0975 72.615 16.8175 71.9925 17.33C71.37 17.845 70.4675 18.1 69.2925 18.1H65.8425V12.5H69.275ZM69.855 21.625H65.805V27.7H69.78C71.145 27.7 72.1975 27.4425 72.93 26.93C73.665 26.415 74.0325 25.6775 74.0325 24.7125C74.0325 22.6575 72.635 21.6375 69.8325 21.6375L69.855 21.625Z" fill="white"/>
<path d="M125.5 31C126.728 30.7024 127.808 30.295 128.75 29.7824V25.5075C126.782 26.7199 124.625 27.3274 122.3 27.3274C120.775 27.3274 119.475 27.04 118.4 26.465C117.33 25.8899 116.515 25.0525 115.955 23.94C115.393 22.84 115.113 21.5075 115.113 19.94C115.113 18.3775 115.403 17.04 115.985 15.965C116.568 14.875 117.403 14.0425 118.485 13.4675C119.575 12.8925 120.892 12.605 122.435 12.605C123.557 12.605 124.628 12.7545 125.635 13.0525C126.65 13.35 127.593 13.7875 128.46 14.3625V9.98745C127.508 9.49495 126.475 9.11995 125.36 8.86245C124.248 8.60495 123.067 8.47745 121.81 8.47745C120.01 8.47745 118.385 8.74495 116.935 9.27995C115.485 9.81495 114.235 10.585 113.21 11.5925C112.172 12.6 111.377 13.8075 110.827 15.2175C110.277 16.625 110.003 18.1924 110.003 19.9424C110.003 21.7324 110.268 23.3425 110.798 24.7675C111.328 26.1975 112.087 27.3925 113.085 28.3925C114.08 29.3799 115.298 30.135 116.735 30.66C118.175 31.1849 119.785 31.4475 121.585 31.4475C122.94 31.4475 124.235 31.298 125.46 31H125.5ZM140 39.95H100V-0.0500488H140V39.95Z" fill="white"/>
</g>
<defs>
<clipPath id="clip0_200_7133">
<rect width="140" height="40" fill="white"/>
</clipPath>
</defs>
</svg>
