<svg width="119" height="40" viewBox="0 0 119 40" fill="none" xmlns="http://www.w3.org/2000/svg">
<path d="M50.3261 20.5131C50.3261 26.0653 45.9826 30.1566 40.6522 30.1566C35.3217 30.1566 30.9783 26.0653 30.9783 20.5131C30.9783 14.9218 35.3217 10.8696 40.6522 10.8696C45.9826 10.8696 50.3261 14.9218 50.3261 20.5131ZM46.0913 20.5131C46.0913 17.0435 43.5739 14.6696 40.6522 14.6696C37.7304 14.6696 35.2131 17.0435 35.2131 20.5131C35.2131 23.9479 37.7304 26.3566 40.6522 26.3566C43.5739 26.3566 46.0913 23.9435 46.0913 20.5131Z" fill="white"/>
<path d="M71.1957 20.5131C71.1957 26.0653 66.8522 30.1566 61.5218 30.1566C56.1914 30.1566 51.8479 26.0653 51.8479 20.5131C51.8479 14.9262 56.1914 10.8696 61.5218 10.8696C66.8522 10.8696 71.1957 14.9218 71.1957 20.5131ZM66.9609 20.5131C66.9609 17.0435 64.4436 14.6696 61.5218 14.6696C58.6001 14.6696 56.0827 17.0435 56.0827 20.5131C56.0827 23.9479 58.6001 26.3566 61.5218 26.3566C64.4436 26.3566 66.9609 23.9435 66.9609 20.5131Z" fill="white"/>
<path d="M91.1957 11.4522V28.7653C91.1957 35.887 86.9957 38.7957 82.0305 38.7957C77.3566 38.7957 74.5435 35.6696 73.4827 33.1131L77.1696 31.5783C77.8261 33.1479 79.4348 35.0001 82.0261 35.0001C85.2044 35.0001 87.174 33.0392 87.174 29.3479V27.9609H87.0261C86.0783 29.1305 84.2522 30.1522 81.9479 30.1522C77.1261 30.1522 72.7087 25.9522 72.7087 20.5479C72.7087 15.1044 77.1261 10.8696 81.9479 10.8696C84.2479 10.8696 86.074 11.8914 87.0261 13.0262H87.174V11.4566H91.1957V11.4522ZM87.474 20.5479C87.474 17.1522 85.2087 14.6696 82.3261 14.6696C79.4044 14.6696 76.9566 17.1522 76.9566 20.5479C76.9566 23.9088 79.4044 26.3566 82.3261 26.3566C85.2087 26.3566 87.474 23.9088 87.474 20.5479Z" fill="white"/>
<path d="M97.826 1.30444V29.5653H93.6956V1.30444H97.826Z" fill="white"/>
<path d="M113.922 23.687L117.209 25.8783C116.148 27.4478 113.591 30.1522 109.174 30.1522C103.696 30.1522 99.6042 25.9174 99.6042 20.5087C99.6042 14.7739 103.73 10.8652 108.7 10.8652C113.704 10.8652 116.152 14.8478 116.952 17L117.391 18.0957L104.5 23.4348C105.487 25.3696 107.022 26.3565 109.174 26.3565C111.33 26.3565 112.826 25.2957 113.922 23.687ZM103.804 20.2174L112.422 16.6391C111.948 15.4348 110.522 14.5957 108.843 14.5957C106.691 14.5957 103.696 16.4957 103.804 20.2174Z" fill="white"/>
<path d="M15.3435 18.0043V13.913H29.1304C29.2652 14.6261 29.3348 15.4696 29.3348 16.3826C29.3348 19.4522 28.4956 23.2478 25.7913 25.9522C23.1608 28.6913 19.8 30.1522 15.3478 30.1522C7.09562 30.1522 0.156494 23.4304 0.156494 15.1783C0.156494 6.92608 7.09562 0.204346 15.3478 0.204346C19.913 0.204346 23.1652 1.99565 25.6087 4.33043L22.7217 7.21739C20.9695 5.57391 18.5956 4.29565 15.3435 4.29565C9.31736 4.29565 4.60432 9.15217 4.60432 15.1783C4.60432 21.2043 9.31736 26.0609 15.3435 26.0609C19.2521 26.0609 21.4782 24.4913 22.9043 23.0652C24.0608 21.9087 24.8217 20.2565 25.1217 18L15.3435 18.0043Z" fill="white"/>
</svg>
