<svg width="80" height="40" viewBox="0 0 80 40" fill="none" xmlns="http://www.w3.org/2000/svg">
<g clip-path="url(#clip0_200_7107)">
<path d="M1.66173 14.701C2.62034 14.701 3.39744 13.9114 3.39744 12.9375C3.39744 11.9636 2.62034 11.1741 1.66173 11.1741C0.703128 11.1741 -0.0739746 11.9636 -0.0739746 12.9375C-0.0739746 13.9114 0.703128 14.701 1.66173 14.701Z" fill="white"/>
<path d="M1.66173 19.6387C2.62034 19.6387 3.39744 18.8492 3.39744 17.8753C3.39744 16.9013 2.62034 16.1118 1.66173 16.1118C0.703128 16.1118 -0.0739746 16.9013 -0.0739746 17.8753C-0.0739746 18.8492 0.703128 19.6387 1.66173 19.6387Z" fill="white"/>
<path opacity="0.2" d="M6.52184 14.701C7.48044 14.701 8.25755 13.9114 8.25755 12.9375C8.25755 11.9636 7.48044 11.1741 6.52184 11.1741C5.56323 11.1741 4.78613 11.9636 4.78613 12.9375C4.78613 13.9114 5.56323 14.701 6.52184 14.701Z" fill="white"/>
<path d="M6.52184 19.6866C7.48044 19.6866 8.25755 18.897 8.25755 17.9231C8.25755 16.9492 7.48044 16.1597 6.52184 16.1597C5.56323 16.1597 4.78613 16.9492 4.78613 17.9231C4.78613 18.897 5.56323 19.6866 6.52184 19.6866Z" fill="white"/>
<path opacity="0.2" d="M11.3817 14.701C12.3403 14.701 13.1174 13.9114 13.1174 12.9375C13.1174 11.9636 12.3403 11.1741 11.3817 11.1741C10.4231 11.1741 9.646 11.9636 9.646 12.9375C9.646 13.9114 10.4231 14.701 11.3817 14.701Z" fill="white"/>
<path opacity="0.2" d="M11.3817 9.05791C12.3403 9.05791 13.1174 8.26838 13.1174 7.29446C13.1174 6.32053 12.3403 5.53101 11.3817 5.53101C10.4231 5.53101 9.646 6.32053 9.646 7.29446C9.646 8.26838 10.4231 9.05791 11.3817 9.05791Z" fill="white"/>
<path opacity="0.2" d="M11.3817 19.6866C12.3403 19.6866 13.1174 18.897 13.1174 17.9231C13.1174 16.9492 12.3403 16.1597 11.3817 16.1597C10.4231 16.1597 9.646 16.9492 9.646 17.9231C9.646 18.897 10.4231 19.6866 11.3817 19.6866Z" fill="white"/>
<path opacity="0.2" d="M16.2416 14.701C17.2002 14.701 17.9773 13.9114 17.9773 12.9375C17.9773 11.9636 17.2002 11.1741 16.2416 11.1741C15.283 11.1741 14.5059 11.9636 14.5059 12.9375C14.5059 13.9114 15.283 14.701 16.2416 14.701Z" fill="white"/>
<path d="M21.1017 14.701C22.0603 14.701 22.8374 13.9114 22.8374 12.9375C22.8374 11.9636 22.0603 11.1741 21.1017 11.1741C20.1431 11.1741 19.366 11.9636 19.366 12.9375C19.366 13.9114 20.1431 14.701 21.1017 14.701Z" fill="white"/>
<path d="M16.2416 19.6866C17.2002 19.6866 17.9773 18.897 17.9773 17.9231C17.9773 16.9492 17.2002 16.1597 16.2416 16.1597C15.283 16.1597 14.5059 16.9492 14.5059 17.9231C14.5059 18.897 15.283 19.6866 16.2416 19.6866Z" fill="white"/>
<path d="M21.1017 19.6866C22.0603 19.6866 22.8374 18.897 22.8374 17.9231C22.8374 16.9492 22.0603 16.1597 21.1017 16.1597C20.1431 16.1597 19.366 16.9492 19.366 17.9231C19.366 18.897 20.1431 19.6866 21.1017 19.6866Z" fill="white"/>
<path d="M1.66173 24.5762C2.62034 24.5762 3.39744 23.7867 3.39744 22.8128C3.39744 21.8388 2.62034 21.0493 1.66173 21.0493C0.703128 21.0493 -0.0739746 21.8388 -0.0739746 22.8128C-0.0739746 23.7867 0.703128 24.5762 1.66173 24.5762Z" fill="white"/>
<path opacity="0.2" d="M6.52184 24.6243C7.48044 24.6243 8.25755 23.8348 8.25755 22.8609C8.25755 21.8869 7.48044 21.0974 6.52184 21.0974C5.56323 21.0974 4.78613 21.8869 4.78613 22.8609C4.78613 23.8348 5.56323 24.6243 6.52184 24.6243Z" fill="white"/>
<path d="M11.3817 24.6243C12.3403 24.6243 13.1174 23.8348 13.1174 22.8609C13.1174 21.8869 12.3403 21.0974 11.3817 21.0974C10.4231 21.0974 9.646 21.8869 9.646 22.8609C9.646 23.8348 10.4231 24.6243 11.3817 24.6243Z" fill="white"/>
<path opacity="0.2" d="M16.2416 24.6243C17.2002 24.6243 17.9773 23.8348 17.9773 22.8609C17.9773 21.8869 17.2002 21.0974 16.2416 21.0974C15.283 21.0974 14.5059 21.8869 14.5059 22.8609C14.5059 23.8348 15.283 24.6243 16.2416 24.6243Z" fill="white"/>
<path d="M21.1017 24.6243C22.0603 24.6243 22.8374 23.8348 22.8374 22.8609C22.8374 21.8869 22.0603 21.0974 21.1017 21.0974C20.1431 21.0974 19.366 21.8869 19.366 22.8609C19.366 23.8348 20.1431 24.6243 21.1017 24.6243Z" fill="white"/>
<path d="M1.66173 29.514C2.62034 29.514 3.39744 28.7244 3.39744 27.7505C3.39744 26.7766 2.62034 25.9871 1.66173 25.9871C0.703128 25.9871 -0.0739746 26.7766 -0.0739746 27.7505C-0.0739746 28.7244 0.703128 29.514 1.66173 29.514Z" fill="white"/>
<path opacity="0.2" d="M6.52184 29.5618C7.48044 29.5618 8.25755 28.7723 8.25755 27.7984C8.25755 26.8244 7.48044 26.0349 6.52184 26.0349C5.56323 26.0349 4.78613 26.8244 4.78613 27.7984C4.78613 28.7723 5.56323 29.5618 6.52184 29.5618Z" fill="white"/>
<path opacity="0.2" d="M11.3817 29.5618C12.3403 29.5618 13.1174 28.7723 13.1174 27.7984C13.1174 26.8244 12.3403 26.0349 11.3817 26.0349C10.4231 26.0349 9.646 26.8244 9.646 27.7984C9.646 28.7723 10.4231 29.5618 11.3817 29.5618Z" fill="white"/>
<path opacity="0.2" d="M11.3817 34.4996C12.3403 34.4996 13.1174 33.71 13.1174 32.7361C13.1174 31.7622 12.3403 30.9727 11.3817 30.9727C10.4231 30.9727 9.646 31.7622 9.646 32.7361C9.646 33.71 10.4231 34.4996 11.3817 34.4996Z" fill="white"/>
<path opacity="0.2" d="M16.2416 29.5618C17.2002 29.5618 17.9773 28.7723 17.9773 27.7984C17.9773 26.8244 17.2002 26.0349 16.2416 26.0349C15.283 26.0349 14.5059 26.8244 14.5059 27.7984C14.5059 28.7723 15.283 29.5618 16.2416 29.5618Z" fill="white"/>
<path d="M21.1017 29.5618C22.0603 29.5618 22.8374 28.7723 22.8374 27.7984C22.8374 26.8244 22.0603 26.0349 21.1017 26.0349C20.1431 26.0349 19.366 26.8244 19.366 27.7984C19.366 28.7723 20.1431 29.5618 21.1017 29.5618Z" fill="white"/>
<path d="M31.6808 21.6011L31.8555 22.0303L32.0333 21.5918L32.2279 21.178L34.8397 16.2274C34.8667 16.1737 34.9007 16.1238 34.9408 16.0792C34.9753 16.0427 35.0144 16.0171 35.0558 15.9984C35.0972 15.9798 35.1462 15.9713 35.1991 15.9674C35.2618 15.9626 35.3247 15.9605 35.3876 15.9612H36.626V24.8968H35.1799V19.1258L35.1891 18.7741L35.2175 18.3845L32.5506 23.4531C32.4893 23.568 32.4103 23.658 32.3207 23.7216C32.231 23.7853 32.1084 23.8179 31.9796 23.8179H31.7536C31.6329 23.8214 31.514 23.7879 31.4125 23.7216C31.3122 23.6539 31.2305 23.5615 31.175 23.4531L28.4713 18.3666L28.5058 18.7656L28.515 19.1273V24.8984H27.0688V15.9612H28.3073L28.4958 15.9674C28.5449 15.9708 28.5931 15.9815 28.6391 15.9992C28.6843 16.0165 28.725 16.0441 28.7579 16.0799C28.799 16.1241 28.8341 16.1737 28.8621 16.2274L31.4984 21.1889L31.6884 21.6003L31.6808 21.6011ZM40.9092 18.4575C41.2804 18.4526 41.6494 18.5174 41.9974 18.6484C42.3285 18.7772 42.6143 18.9628 42.8542 19.2073C43.102 19.4647 43.2932 19.7723 43.4152 20.11C43.5493 20.467 43.6159 20.8738 43.6159 21.3302C43.6174 21.4261 43.6123 21.5221 43.6006 21.6174C43.594 21.6803 43.5758 21.7414 43.547 21.7974C43.5217 21.8417 43.4857 21.872 43.4397 21.8906C43.3937 21.9092 43.3385 21.9193 43.268 21.9193H39.3995C39.4454 22.5713 39.6179 23.0479 39.9183 23.3522C40.2187 23.6564 40.618 23.8179 41.1138 23.8179C41.359 23.8179 41.569 23.7892 41.7445 23.731C41.92 23.6727 42.0763 23.6091 42.2089 23.54L42.5561 23.3491C42.6557 23.2909 42.7523 23.2621 42.8458 23.2621C42.9071 23.2621 42.9592 23.2746 43.0044 23.2986C43.0496 23.3227 43.081 23.3584 43.1193 23.4042L43.5585 23.9599C43.3967 24.1527 43.2077 24.3201 42.9975 24.4567C42.7939 24.5891 42.5758 24.6972 42.3476 24.7788C42.1242 24.8589 41.8934 24.9161 41.6587 24.9496C41.433 24.9819 41.2053 24.9982 40.9774 24.9985C40.5429 24.9985 40.1375 24.9255 39.7635 24.7788C39.3956 24.6361 39.0623 24.4148 38.7864 24.1299C38.509 23.8443 38.2921 23.4896 38.1335 23.0681C37.9748 22.6466 37.9035 22.156 37.9035 21.5933C37.9035 21.161 37.9802 20.7535 38.1105 20.3731C38.2413 20.0047 38.4438 19.6666 38.7059 19.3788C38.972 19.0914 39.294 18.8631 39.6516 18.7082C40.0256 18.5428 40.4463 18.4598 40.9138 18.4598L40.9092 18.4575ZM40.9398 19.5441C40.5007 19.5441 40.1559 19.6707 39.9083 19.9214C39.6608 20.1721 39.5022 20.5291 39.4332 20.9894H42.2641C42.2641 20.7923 42.2373 20.606 42.1844 20.4306C42.1349 20.2615 42.0517 20.1046 41.9399 19.9695C41.8311 19.8375 41.6924 19.7343 41.5261 19.6567C41.3598 19.5791 41.1628 19.5434 40.9406 19.5434L40.9398 19.5441ZM46.9005 24.9962C46.3595 24.9962 45.9426 24.8409 45.6491 24.5289C45.3556 24.2169 45.21 23.7884 45.21 23.2404V19.6994H44.5754C44.4942 19.6994 44.4244 19.6722 44.3654 19.6186C44.3064 19.5651 44.2765 19.4844 44.2765 19.3858V18.7803L45.2828 18.6127L45.6008 16.8833C45.6161 16.801 45.6544 16.7281 45.7127 16.6924C45.7709 16.6567 45.8453 16.6248 45.9426 16.6248H46.7243V18.6212H48.3719V19.7079H46.7243V23.1434C46.7243 23.3405 46.7726 23.495 46.8775 23.6075C46.9256 23.6619 46.9848 23.705 47.051 23.734C47.1171 23.7629 47.1887 23.777 47.2607 23.7752C47.3542 23.7752 47.4324 23.7643 47.496 23.7403C47.5528 23.721 47.6082 23.6974 47.6615 23.6696L47.7864 23.592C47.8225 23.5703 47.86 23.5571 47.8968 23.5571C47.9428 23.5571 47.978 23.568 48.0056 23.592C48.0403 23.6222 48.0712 23.6566 48.0976 23.6945L48.5574 24.4365C48.3335 24.6238 48.0766 24.7663 47.8002 24.8565C47.5145 24.9513 47.2157 24.9992 46.9151 24.9985L46.9005 24.9962ZM54.4721 24.8984H53.7946C53.6529 24.8984 53.5417 24.8766 53.4597 24.8339C53.3777 24.7913 53.318 24.702 53.2774 24.5716L53.1432 24.1214C52.9947 24.2571 52.8386 24.3841 52.6758 24.5017C52.5225 24.6104 52.3654 24.702 52.2037 24.7765C52.0375 24.852 51.8635 24.9083 51.6849 24.9442C51.4836 24.9833 51.279 25.0015 51.0741 24.9985C50.8258 25.001 50.5786 24.9644 50.3415 24.8898C50.1288 24.8235 49.9324 24.7124 49.7652 24.5638C49.6042 24.4108 49.4741 24.2276 49.382 24.0244C49.2839 23.8109 49.2479 23.5586 49.2479 23.2746C49.2479 23.0417 49.3092 22.798 49.4333 22.5643C49.5575 22.3307 49.7629 22.1219 50.0518 21.9317C50.3407 21.7416 50.7246 21.5879 51.2051 21.4629C51.6856 21.3379 52.2803 21.2766 52.9923 21.2766V20.9025C52.9923 20.4756 52.9034 20.1573 52.7271 19.9524C52.5508 19.7475 52.2926 19.645 51.9562 19.645C51.7109 19.645 51.5086 19.6738 51.3454 19.732C51.1986 19.7835 51.0567 19.8484 50.9216 19.926L50.5898 20.1201C50.4876 20.1784 50.3721 20.2084 50.2549 20.207C50.1612 20.2093 50.0693 20.181 49.9928 20.1263C49.9207 20.0737 49.8602 20.0066 49.815 19.9291L49.5406 19.4417C50.261 18.7741 51.1285 18.4326 52.1462 18.4326C52.5125 18.4326 52.8382 18.4947 53.1249 18.6158C53.401 18.7299 53.6498 18.9028 53.8544 19.1227C54.0578 19.3459 54.2128 19.6098 54.3096 19.8973C54.4165 20.2159 54.4692 20.5505 54.4652 20.887L54.4721 24.8984ZM51.5431 23.9467C51.6865 23.9479 51.8296 23.9336 51.97 23.9041C52.0977 23.8764 52.2217 23.8334 52.3393 23.776C52.4577 23.7178 52.5699 23.6476 52.6742 23.5664C52.7897 23.4762 52.8985 23.3776 52.9999 23.2715V22.2189C52.5608 22.2189 52.193 22.2476 51.8987 22.3028C51.6044 22.3579 51.3676 22.4308 51.1883 22.5178C51.0089 22.6047 50.8817 22.7072 50.8066 22.822C50.733 22.9348 50.6941 23.0672 50.6947 23.2024C50.6947 23.4725 50.7729 23.665 50.93 23.7814C51.0871 23.8978 51.2917 23.9553 51.5431 23.9553V23.9467ZM55.9726 24.8984V15.7144H57.4793V19.3361C57.7268 19.0675 58.0157 18.8549 58.3207 18.6973C58.6257 18.5397 58.9997 18.459 59.4189 18.459C59.7432 18.4549 60.0639 18.5277 60.3554 18.6717C60.6374 18.8137 60.8819 19.021 61.088 19.2926C61.2942 19.5643 61.4528 19.9004 61.5632 20.2994C61.6735 20.6983 61.7318 21.1579 61.7318 21.6771C61.7318 22.1429 61.6704 22.5892 61.5432 22.9936C61.4291 23.375 61.2456 23.7314 61.0022 24.0445C60.7685 24.3411 60.4849 24.5724 60.1546 24.7408C59.8243 24.9092 59.4519 24.9915 59.0403 24.9915C58.8487 24.9915 58.674 24.9729 58.5154 24.9333C58.3567 24.8937 58.2134 24.8402 58.0824 24.7781C57.9516 24.7078 57.8296 24.6218 57.7191 24.5219C57.6044 24.4177 57.4971 24.3054 57.398 24.1858L57.3314 24.6127C57.3061 24.7198 57.2662 24.7959 57.2064 24.8417C57.1467 24.8875 57.0685 24.9092 56.965 24.9092H55.9726V24.8984ZM58.9016 19.645C58.5951 19.645 58.3207 19.711 58.0992 19.8453C57.8608 19.9939 57.6513 20.1854 57.4808 20.4104V23.2528C57.6525 23.4678 57.8379 23.6161 58.0387 23.7007C58.2395 23.7853 58.4602 23.8272 58.6947 23.8272C58.9073 23.8306 59.1179 23.7864 59.3116 23.6976C59.4953 23.6104 59.6536 23.4767 59.7714 23.3095C59.9097 23.1061 60.01 22.8788 60.0672 22.6388C60.1439 22.3687 60.1715 22.0505 60.1715 21.6841C60.1715 21.3131 60.1408 20.9995 60.0826 20.7418C60.0243 20.4841 59.9393 20.2745 59.8297 20.1154C59.7305 19.964 59.5928 19.8425 59.4312 19.7638C59.2725 19.6908 59.094 19.6536 58.8947 19.6536L58.9016 19.645ZM67.8166 24.8984H67.1391C66.9974 24.8984 66.8862 24.8766 66.8042 24.8339C66.7223 24.7913 66.6625 24.702 66.6219 24.5716L66.4877 24.1214C66.3392 24.2571 66.1831 24.3841 66.0203 24.5017C65.8715 24.6086 65.7129 24.7006 65.5467 24.7765C65.3804 24.8517 65.2064 24.9079 65.0278 24.9442C64.8455 24.983 64.6416 24.9985 64.4171 24.9985C64.1688 25.001 63.9216 24.9644 63.6844 24.8898C63.4718 24.8235 63.2754 24.7124 63.1081 24.5638C62.9472 24.4108 62.8171 24.2276 62.725 24.0244C62.6269 23.8109 62.5908 23.5586 62.5908 23.2746C62.5908 23.0417 62.6521 22.798 62.7763 22.5643C62.9004 22.3307 63.1058 22.1219 63.3947 21.9317C63.6837 21.7416 64.0676 21.5879 64.5481 21.4629C65.0286 21.3379 65.6248 21.2766 66.3352 21.2766V20.9025C66.3352 20.4756 66.2463 20.1573 66.0701 19.9524C65.8938 19.7475 65.6356 19.645 65.2991 19.645C65.0539 19.645 64.8516 19.6738 64.6883 19.732C64.5416 19.7835 64.3997 19.8484 64.2646 19.926L63.9327 20.1201C63.8303 20.1777 63.715 20.2076 63.5978 20.207C63.5042 20.2093 63.4123 20.181 63.3357 20.1263C63.2637 20.0737 63.2031 20.0066 63.1579 19.9291L62.8836 19.4417C63.604 18.7741 64.4715 18.4326 65.4892 18.4326C65.8555 18.4326 66.1827 18.4947 66.4701 18.6158C66.7463 18.7299 66.9951 18.9028 67.1997 19.1227C67.403 19.3459 67.5581 19.6098 67.6549 19.8973C67.7618 20.2159 67.8144 20.5505 67.8105 20.887L67.8166 24.8984ZM64.8876 23.9467C65.031 23.9479 65.1741 23.9336 65.3145 23.9041C65.4422 23.8764 65.5662 23.8334 65.6838 23.776C65.8022 23.7178 65.9144 23.6476 66.0187 23.5664C66.1342 23.4762 66.243 23.3776 66.3444 23.2715V22.2189C65.9053 22.2189 65.5375 22.2476 65.2432 22.3028C64.9489 22.3579 64.7121 22.4308 64.5328 22.5178C64.3535 22.6047 64.2262 22.7072 64.1511 22.822C64.0775 22.9348 64.0386 23.0672 64.0392 23.2024C64.0392 23.4725 64.1174 23.665 64.2745 23.7814C64.4316 23.8978 64.6362 23.9553 64.8876 23.9553V23.9467ZM73.0148 19.7925C72.9834 19.8483 72.9396 19.8959 72.8868 19.9315C72.8408 19.9586 72.7856 19.9703 72.7151 19.9703C72.6331 19.968 72.5527 19.9471 72.4799 19.9089L72.1902 19.7692C72.0814 19.7172 71.9549 19.6714 71.807 19.6295C71.6591 19.5876 71.5005 19.5674 71.3089 19.5674C71.0115 19.5674 70.7778 19.6318 70.6077 19.7584C70.4375 19.8849 70.3525 20.0533 70.3525 20.259C70.3507 20.3219 70.3613 20.3844 70.3837 20.443C70.4061 20.5017 70.4397 20.5552 70.4827 20.6005C70.5693 20.6914 70.6851 20.7744 70.8299 20.845C70.9884 20.9202 71.1524 20.983 71.3204 21.0329L71.8813 21.2145L72.4423 21.4474C72.6247 21.525 72.7872 21.6383 72.9328 21.7695C73.0781 21.9002 73.1962 22.0591 73.2799 22.2368C73.3665 22.4184 73.4102 22.6357 73.4102 22.8919C73.4102 23.1962 73.3566 23.4771 73.2447 23.7364C73.1328 23.9956 72.9734 24.2161 72.7634 24.4039C72.5333 24.6013 72.2669 24.7503 71.9794 24.8425C71.6691 24.948 71.3112 25.0001 70.9088 25.0001C70.6973 25.0007 70.4861 24.9812 70.2781 24.9418C70.0727 24.903 69.8758 24.8487 69.6857 24.7866C69.4957 24.7245 69.3209 24.6337 69.1608 24.5382C69.0006 24.4427 68.8588 24.3411 68.737 24.2277L69.0841 23.6471C69.1247 23.5824 69.1789 23.5275 69.2428 23.4865C69.3136 23.4465 69.3941 23.4277 69.475 23.4321C69.5693 23.4322 69.6614 23.4603 69.7402 23.5129L70.0298 23.6867C70.1532 23.7574 70.283 23.8156 70.4176 23.8606C70.5999 23.919 70.7905 23.9463 70.9816 23.9413C71.161 23.9413 71.3135 23.9196 71.443 23.8769C71.5725 23.8342 71.6767 23.7775 71.761 23.7061C71.8453 23.6347 71.9143 23.5548 71.9434 23.4616C71.9771 23.3695 71.9964 23.2726 72.0009 23.1744C72.0061 23.0401 71.9591 22.9091 71.8698 22.8096C71.7825 22.7149 71.666 22.6326 71.5227 22.5612C71.363 22.4857 71.1977 22.4229 71.0284 22.3734L70.4613 22.1902C70.2679 22.124 70.0785 22.0462 69.8942 21.9573C69.7131 21.8722 69.5463 21.7588 69.3999 21.6212C69.2517 21.48 69.1336 21.3097 69.0527 21.1206C68.9654 20.9234 68.9225 20.6836 68.9225 20.4042C68.9219 20.1488 68.9738 19.8961 69.075 19.6621C69.1772 19.4254 69.3307 19.2151 69.524 19.0466C69.7233 18.8712 69.9662 18.7307 70.2628 18.6274C70.5594 18.5242 70.8989 18.4699 71.2851 18.4699C71.7166 18.4699 72.1097 18.5428 72.463 18.6872C72.8163 18.8316 73.1113 19.021 73.3481 19.2554L73.0148 19.7925ZM77.219 18.4575C77.5902 18.4526 77.9592 18.5174 78.3072 18.6484C78.6383 18.7772 78.9241 18.9628 79.164 19.2073C79.4118 19.4647 79.603 19.7723 79.725 20.11C79.8591 20.467 79.9257 20.8738 79.9257 21.3302C79.9272 21.4261 79.9221 21.5221 79.9104 21.6174C79.9038 21.6803 79.8856 21.7414 79.8568 21.7974C79.8315 21.8417 79.7955 21.872 79.7495 21.8906C79.7035 21.9092 79.6483 21.9193 79.5778 21.9193H75.7093C75.7552 22.5713 75.9277 23.0479 76.2281 23.3522C76.5285 23.6564 76.9278 23.8179 77.4236 23.8179C77.6688 23.8179 77.8788 23.7892 78.0543 23.731C78.2298 23.6727 78.3861 23.6091 78.5187 23.54L78.8659 23.3491C78.9655 23.2909 79.0621 23.2621 79.1556 23.2621C79.2169 23.2621 79.269 23.2746 79.3142 23.2986C79.3594 23.3227 79.3908 23.3584 79.4291 23.4042L79.8683 23.9599C79.7065 24.1527 79.5175 24.3201 79.3073 24.4567C79.1037 24.5891 78.8856 24.6972 78.6574 24.7788C78.434 24.8589 78.2032 24.9161 77.9685 24.9496C77.7428 24.9819 77.5151 24.9982 77.2872 24.9985C76.8527 24.9985 76.4473 24.9255 76.0733 24.7788C75.7054 24.6361 75.3721 24.4148 75.0962 24.1299C74.8188 23.8443 74.6019 23.4896 74.4433 23.0681C74.2846 22.6466 74.2133 22.156 74.2133 21.5933C74.2133 21.161 74.29 20.7535 74.4203 20.3731C74.5511 20.0047 74.7536 19.6666 75.0157 19.3788C75.2818 19.0914 75.6038 18.8631 75.9614 18.7082C76.3446 18.5428 76.7584 18.4598 77.2259 18.4598L77.219 18.4575ZM77.2496 19.5441C76.8105 19.5441 76.4657 19.6707 76.2181 19.9214C75.9706 20.1721 75.812 20.5291 75.743 20.9894H78.5739C78.5739 20.7923 78.5471 20.606 78.4942 20.4306C78.4447 20.2615 78.3615 20.1046 78.2497 19.9695C78.1394 19.8375 78.0022 19.7343 77.8359 19.6567C77.6696 19.5791 77.4742 19.5434 77.2504 19.5434L77.2496 19.5441Z" fill="white"/>
</g>
<defs>
<clipPath id="clip0_200_7107">
<rect width="80" height="40" fill="white"/>
</clipPath>
</defs>
</svg>
